<?xml version="1.0" encoding="utf-8"?>
<!-- Generator: Adobe Illustrator 23.0.4, SVG Export Plug-In . SVG Version: 6.00 Build 0)  -->
<svg version="1.1" id="Ebene_1" xmlns="http://www.w3.org/2000/svg" xmlns:xlink="http://www.w3.org/1999/xlink" x="0px" y="0px"
	 viewBox="0 0 600 600" style="enable-background:new 0 0 600 600;" xml:space="preserve">
<style type="text/css">
	.st0{fill:#E74322;}
	.st1{fill:none;stroke:#E74322;stroke-width:6;stroke-miterlimit:10;}
</style>
<path class="st0" d="M1182.33,636.6c-0.49-0.88-1.02-1.75-1.55-2.62c-1.35-2.21-2.72-4.41-3.57-6.79c-1.67-4.68-2.6-9.62-3.84-14.45
	c-1.23-0.01-2.47-0.01-3.7-0.02c-2.29,8.03-4.57,16.06-6.86,24.09c-1.39-0.16-2.79-0.32-4.19-0.47c-0.52-3.99-1.39-7.97-1.5-11.97
	c-0.94-33.6-1.57-67.21-2.81-100.79c-0.14-4.03-2.37-10.38-5.26-11.52c-15.02-5.91-23.55,0.11-24.14,16
	c-1.17,31.8-2.09,63.61-3.51,95.4c-0.14,3.2-2.96,6.27-4.54,9.41c-1.63-3.15-4.56-6.25-4.66-9.44c-0.51-15.5-0.91-31.06-0.07-46.53
	c0.74-13.73-7.14-14.91-17.56-15.01c-10.9-0.11-19.33,0.96-18.56,15.43c0.81,15.02,0.11,30.13,0.08,45.2
	c-0.02,8.56-5.41,13.1-11.34,7.19c-8.41-8.37-13.71-3.74-20.69,2.37c-5.03-5.86-9.5-11.06-14.14-16.45
	c-4.6,5.62-9.2,11.24-13.38,16.35c-6.18-2.71-13.28-8.27-16.03-6.62c-15.39,9.29-31.36,3.03-46.89,3.44
	c-24.82,0.67-24.98,0.1-25.75-25.23c-0.27-8.83-1.55-15.24-12.56-8.59c-2.8-10.39-5.3-19.66-8.88-32.96
	c-3.64,13.97-6.27,24.04-9.02,34.58c-3.2-1.86-5.87-3.42-9.99-5.81c-1.32,6.94-2.34,12.37-3.55,18.77
	c-2.53-10.39-4.82-19.81-7.12-29.25c-6.97,2.82-12.54,6.7-14.24,5.42c-3.21-2.41-5.19-7.63-5.88-11.97
	c-1.46-9.15-1.19-18.58-2.65-27.74c-4.91-30.87-10.23-61.68-15.56-92.48c-0.23-1.35-2.01-2.44-5.24-6.13
	c-7.76,46.7-15.09,90.81-22.42,134.93c-3.22-13.99-3.56-28.34-5.74-42.4c-4.57-29.5-10.09-58.84-15.38-88.22
	c-0.14-0.76-2.09-1.19-3.09-1.72c-0.96,0.67-2.19,1.06-2.31,1.66c-4.95,26.24-10.11,52.45-14.53,78.79
	c-1.67,10-1.3,20.32-2.51,30.42c-0.73,6.02-0.92,15.27-4.48,17.17c-9.66,5.11-9.17,13.28-10.44,21.35
	c-1.45,9.17-1.46,18.79-4.45,27.4c-1.11,3.19-3.44,7.16-6.07,10.1c-1.53,1.71-3.15,3.06-4.71,3.72c1.02,1.18,2.06,2.34,3.11,3.5
	c0.53,0.59,1.06,1.17,1.6,1.76v0.01c0.09,0.09,0.17,0.18,0.25,0.27c2.93,3.2,5.95,6.35,9.05,9.44c4.89,4.88,9.92,9.56,15.08,14.04
	c0.07,0.06,0.13,0.12,0.2,0.17c3.09,0.01,6.18,0.01,9.28,0c122.92,0.01,245.85,0.01,368.78,0h9.29c0.07-0.05,0.13-0.11,0.2-0.17
	c1.08-0.93,2.14-1.87,3.2-2.82c4.04-3.62,8-7.36,11.87-11.22c3.11-3.1,6.14-6.26,9.09-9.48c0.61-0.66,1.22-1.33,1.82-2
	c1.75-1.93,3.47-3.88,5.14-5.84c0.52-0.6,1.03-1.21,1.54-1.81c1.55-1.83,3.07-3.68,4.57-5.55
	C1188.54,633.19,1185.29,634.73,1182.33,636.6z"/>
<path class="st0" d="M562.92,423.99c-3.39,0.85-1.53,2.5-0.37,4.27c0.16,0.25,0.28,0.51,0.34,0.79c0.94-1.81,1.87-3.62,2.77-5.45
	C564.77,423.56,563.81,423.76,562.92,423.99z M539.34,383.86c-2.23-4.9-3.97-10.14-9.17-12.97c-1.23-0.67-2.2-3.21-3.71-1.1
	c-0.95,1.31-2.37,3.62,0.18,5.17c1.49,0.91,2.3,2,2.26,3.83c-0.33,12.91,0.74,25.85-0.64,38.74c-0.15,1.47-0.65,2.79,0.88,3.6
	c0.6,0.31,1.61,0.32,2.23,0.03c1.58-0.73,1.19-2.03,0.97-3.52c-1.59-11.16-0.33-22.33-0.25-33.58c7.16,17.01,13.1,34.45,20.6,51.15
	c0.76,1.72,1.54,3.43,2.35,5.13c0.25,0.53,0.49,1.05,0.71,1.58c1.91-3.24,3.75-6.53,5.53-9.84c-1.05-2.31-2.1-4.62-3.14-6.92
	C551.82,411.28,545.59,397.57,539.34,383.86z M538.46,457.72c-1.26,0.02-2.53-0.08-2.86-1.52c-0.79-3.5-3.34-2.79-5.6-2.84
	c-3.16-0.07-6.32-0.02-10.41-0.02c3.01-7.91,5.79-15.08,8.42-22.3c0.56-1.51,2.33-3.72,0.04-4.72c-2.87-1.26-2.97,1.93-3.63,3.5
	c-2.59,6.21-4.94,12.51-7.43,18.89c-2.45-1.36-3.19-3.53-4.35-5.31c-12.76-19.47-25.5-38.96-38.13-58.52
	c-3.05-4.73-6.98-8.67-10.62-12.88c-0.65-0.76-1.42-1.63-2.5-1.09c-1.18,0.58-0.68,1.63-0.34,2.56c3.97,11.01,1.81,22.29,1.32,33.47
	c-0.07,1.59-0.99,3.11,0.75,4.15c0.54,0.32,1.6,0.27,2.17-0.05c1.46-0.84,1.14-2.22,0.93-3.68c-1.1-7.52-0.32-15.06,0.71-23.06
	c1.01,1.63,2.07,3.22,3.01,4.88c10.62,18.68,21.21,37.37,31.86,56.04c1.07,1.88,2.09,4.04,3.73,5.31c7.96,6.18,9.13,14.7,8.96,23.87
	c-0.05,2.57-1.05,3.5-3.49,3.67c-3.5,0.26-4.84,1.34-1.66,4.45c1.71,1.67,2.09,5.56,1.44,9.06c-0.43,2.29-1.3,4.43-2.54,5.67
	c-0.45-0.69-0.65-1.46-0.72-2.28c-0.28-3.21,1.46-7.03-1.89-8.44c-3.59-1.51-8.3-0.08-12.36-0.82c-12.07-2.2-23.25,3.62-35.05,3.47
	c-6.46-0.09-12.93-0.21-19.39-0.32c-0.09-6.75-0.2-13.51-0.28-20.26c-0.02-1.97-0.32-4.1,2.58-4.49c1.25-0.16,2.32-0.83,2-2.37
	c-0.28-1.36-1.5-1.82-2.63-2.11c-2.35-0.61-4.8-0.77-7.03,0.29c-2.28,1.09-4.06,2.69-0.32,4.23c1.92,0.79,2.14,2.15,2.15,3.78
	c0.02,6.57,0.01,13.14,0.01,19.71c-0.01,2.17-0.34,3.87-3.2,3.92c-2.85,0.06-3.56-1.52-3.19-3.75c1.23-7.48-6.06-6.19-9.28-7.92
	c-3.15-1.68-1.03,4.08-3.05,5.55c-0.27,0.2-0.73,0.13-1.51,0.24c-1.56-8.13-0.3-15.5,5.41-21.7c1.67-1.82,1.74-3.77,0.88-5.42
	c-1.53-2.95-0.97-5.86-0.58-8.75c3.72-27.38,7.72-54.72,11.18-82.13c0.94-7.43,2.77-15,1.27-22.98c-2.99,1.31-2.91,3.74-3.6,5.65
	c-8.05,22.4-10.47,46.06-15.57,69.13c-0.64,2.88-0.21,6.63-5.12,6.43c-2.64-0.11-2.24,2.32-2.26,4.02
	c-0.06,7.16-0.07,14.33-0.02,21.5c0.03,3.32,0.3,6.61-4.61,6.41c-2.31-0.09-2.17,1.76-2.29,3.38c-0.14,1.97,1.83,3.99-0.77,6.05
	c-0.93,0.74-0.88,4.65,2.1,4.23c8.75-1.23,6.96,4.72,7.18,9.62c0.15,3.31-1.02,4.98-4.42,4.45c-5.48-0.85-9.11,1.96-13.13,5.29
	c-7.47,6.2-19.43,7.02-23.89-3.01c-1.74-3.93-4.82-4.97-8.66-3.82c-4.1,1.24-8.14,0.84-12.26,0.31c-4.51-0.59-6.33-2.35-6.83-7.52
	c-1.45-14.92,0.07-29.73,0.31-44.59c0.06-4.2,0-7.97-6.09-3.3c0-2.84-0.44-4.94,0.08-6.76c2.23-7.87-1.36-14.19-5.04-20.54
	c-0.5-0.86-0.93-1.81-1.62-2.49c-1.8-1.8,2.27-6.15-2.13-6.19c-3.98-0.03-1.09,4.27-2.58,6.27c-5.78,7.73-8.69,16.28-6.83,26.09
	c0.18,0.96,0.62,3.58-1.77,2.44c-5-2.39-4.24,1.35-4.28,3.84c-0.09,6.91,1.04,13.8,1.41,20.61c0.66,12.03-0.93,24.21-1.86,36.3
	c-0.31,4.07-1.78,7.49-7.21,5.5c-1.95-0.72-3.87,0.03-5.61,1.22c-2.27,1.53-4.77,4.84-6.74-0.26c-1.13-2.91-6.5-3.3-5.51-6.26
	c1.48-4.44,0.09-8.33-0.55-12.24c-1.59-9.71-1.59-19.75-5.68-28.99c-0.77-1.75-1.43-3.45-3.64-3.22c-2.55,0.27-3.26,2.31-2.92,4.39
	c0.66,4.05-0.98,6.98-3.77,9.63c-0.81,0.77-1.98,2.24-1.72,2.92c2.84,7.68-0.22,15.2-0.12,22.69c0.09,7.28-6.2,12.07-4.64,19.4
	c-4.31-10.88-12.28-14.76-23.03-15.5c-4.96-0.35-8.86,1.78-13.17,2.89c-8.25,2.11-16.26,5-21.86,12.04
	c-1.76,2.21-4.56,2.42-5.12,0.21c-0.72-2.83-2.72-5.01-2.79-8.2c-0.56-26.25-1.35-52.5-2.24-78.75c-0.12-3.7,0.65-5.99,4.63-6.83
	c3.97-0.83,4.96-3.8,5.04-7.64c0.09-4.01-2.89-4.25-5.35-5.27c-1.55-0.65-3.92-0.24-4.07-2.7c-0.16-2.7,2.52-1.99,3.91-2.78
	c1.01-0.57,2.29-0.65,3.36-1.14c3.06-1.42,6.48-2.54,6.48-6.86c0-4.72-3.58-5.96-7.09-6.69c-2.95-0.62-4.52-1.75-3.16-4.67
	c1.51-3.23,1.98-6.98,1.06-9.81c-2.4-7.37,1.69-16.72-6.64-22.32c-0.56-0.38-0.86-2.09-0.51-2.78c3.24-6.32-1.14-12.57-0.06-18.81
	c1.22-7.09-0.66-14.15,0.03-21.23c0.15-1.52,0.64-3.67-1.68-3.68c-2.26-0.01-1.84,1.93-1.68,3.6c0.79,8.27-1.03,16.57,0.15,24.86
	c0.27,1.95,0.14,3.97-1.24,5.68c-1.08,1.33-1.51,3.07-0.58,4.48c2.8,4.23,2.9,7.6-2.24,10.06c-0.59,0.28-1,1.81-0.84,2.63
	c0.7,3.6-0.68,6.78-1.47,10.14c-1.08,4.65-1.72,9.67-0.17,14.1c1.65,4.73,1.58,7.34-3.94,8.22c-3.2,0.5-5.47,2.26-5.76,5.86
	c-0.29,3.74,2.36,5.2,5.04,6.6c1.05,0.55,2.23,0.85,3.31,1.34c1.86,0.83,5.01,0.21,5.15,3.04c0.16,3.07-3.15,2.39-4.96,3.24
	c-2,0.94-4.25,1.47-4,4.4c0.23,2.7-0.58,6.39,2.88,7.1c7.36,1.53,7.13,6.43,6.54,12.06c-0.47,4.54-0.61,9.13-0.63,13.69
	c-0.06,20.87-0.02,41.74-0.02,62.61c-0.61,0.06-1.22,0.11-1.83,0.16c-0.52-1.11-1.01-2.24-2.41-2.33
	c-10.36-0.72-20.91-0.76-30.91,1.23c-8.46,1.7-16.25,4.84-25.39,3.48c-8.4-1.24-17.12-0.33-25.98-0.28
	c-0.26,0.01-0.52,0.01-0.78,0.01c0.05-0.19,0.12-0.38,0.21-0.57c0.99-2.23,4.04-4.08,1.49-4.73c-6.42-1.65-4.91-6.51-5.29-10.37
	c-1.17-12.08-2.75-24.22,0.86-36.19c0.35-1.16,0.14-2.02-0.89-2.45c-6.63-2.77-4.29-8.61-4.83-13.55c-0.29-2.72,1.97-5.97-0.29-7.98
	c-6.42-5.68-3.37-12.24-2.64-18.77c0.72-6.36,0.34-12.71-3.3-18.36c-0.82-1.27-2.52-1.61-3.01-3.47c-1.93-7.33-2.6-14.78-2.24-22.3
	c0.21-4.29,0.46-4.27-1.29-8.65c-3.04,6.79-1.06,13.83-1.66,20.65c-0.39,4.47-0.85,9.08-3.66,12.48c-5.22,6.33-5.74,13.42-4.4,20.83
	c0.89,4.93,2.76,11.04-0.26,14.24c-3.67,3.87-2.62,7.29-2.81,11.21c-0.19,3.71,1.85,9.16-1.01,10.77c-4.73,2.67-3.82,5.01-3.43,9.31
	c0.01,0.08,0.01,0.16,0.02,0.24c0.34,3.83,0.56,7.7,0.64,11.57c0.95,1.36,1.93,2.71,2.92,4.06c4.51,6.16,9.28,12.16,14.32,18
	c1.54,1.79,3.1,3.56,4.69,5.31c0.53,0.59,1.06,1.17,1.6,1.76v0.01c0.09,0.09,0.17,0.18,0.25,0.27c2.93,3.2,5.95,6.35,9.05,9.44
	c4.89,4.88,9.92,9.56,15.08,14.04c3.76,3.29,7.6,6.46,11.51,9.52c1.05,0.83,2.11,1.64,3.17,2.45h358.38
	c1.07-0.82,2.14-1.65,3.2-2.48c3.9-3.06,7.73-6.22,11.49-9.49c1.08-0.93,2.14-1.87,3.2-2.82c4.04-3.62,8-7.36,11.87-11.22
	c3.11-3.1,6.14-6.26,9.09-9.48c0.61-0.66,1.22-1.33,1.82-2c1.75-1.93,3.47-3.88,5.14-5.84c0.52-0.6,1.03-1.21,1.54-1.81
	c2.85-3.38,5.62-6.82,8.31-10.31c0.71-0.93,1.42-1.86,2.12-2.8c0.46-0.61,0.92-1.22,1.37-1.84c1.61-2.18,3.19-4.37,4.73-6.59
	c0.71-1.02,1.41-2.04,2.1-3.06c-2-0.01-4.01-0.02-6.01-0.07C539.32,457.69,538.89,457.71,538.46,457.72z M412.81,456.86
	c-2.63-0.03-2.62-1.84-2.62-3.65c0-1.73,0.44-3.06,2.61-3.08c2.78-0.02,2.44,1.91,2.47,3.66
	C415.35,455.53,415.06,456.9,412.81,456.86z M421.83,394.42c1.53-8.01,3.15-15.99,4.75-23.98c0.64,0.12,1.28,0.24,1.92,0.37
	c0.32,8.1-2.07,15.94-2.73,23.95c-0.09,1.19-0.84,2.29-2.33,2.22C421.75,396.9,421.61,395.56,421.83,394.42z M417.64,415.42
	c0.92-4.24,1.75-8.49,2.58-12.74c0.35-1.75,1.03-3.05,3.12-2.58c2.01,0.46,1.31,2.07,1.31,3.05c-0.71,4.59-1.43,8.87-2.01,13.17
	c-0.28,2.05-1.46,2.58-3.28,2.45C416.87,418.61,417.28,417.08,417.64,415.42z M417,422.07c1.01-0.45,2.3-0.5,3.43-0.37
	c1.38,0.15,1.14,1.45,1.05,2.36c-0.44,4.11-0.98,8.22-1.61,13.47c-1.57-4.87,1.67-10.06-3.72-12.95
	C415.52,424.24,416.15,422.46,417,422.07z M415.29,443.2c-0.08,2.01,0.43,4.29-2.74,4.07c-2.65-0.18-2.34-2.19-2.37-3.89
	c-0.02-1.97-0.13-4.11,2.89-3.96C415.92,439.55,415.07,441.72,415.29,443.2z M410.2,432.28c-0.05-1.8-0.03-3.83,2.67-3.56
	c2.69,0.27,1.89,2.5,2.14,4.04c-0.11,1.89-0.01,3.91-2.71,3.63C409.6,436.12,410.25,433.92,410.2,432.28z M513.83,453.21
	c-4.04-2.45-7.45-5.3-9.88-9.7c-9.5-17.16-19.34-34.14-28.27-51.67c13.13,20.14,26.26,40.27,39.38,60.41
	C514.65,452.57,514.24,452.89,513.83,453.21z M528.96,470.66c-0.02-0.01-0.03-0.03-0.05-0.05c-1.36-1.12,0.18-4.4-2.81-5.46
	c2.56-0.24,5.32-1.02,7.06-0.1c0.77,0.4,1.33,1.14,1.59,2.41C535.8,472.61,532.69,473.47,528.96,470.66z"/>
<path class="st0" d="M96.22,505.09c-0.09,0.19-0.16,0.38-0.21,0.57c0.26,0,0.52,0,0.78-0.01C96.6,505.47,96.41,505.28,96.22,505.09z
	 M508.95,91.58C453.13,35.91,378.93,5.25,300,5.25S146.86,35.91,91.05,91.58C35.24,147.25,4.5,221.27,4.5,300
	c0,44.17,9.68,86.86,28.03,125.66c3.22,6.81,6.72,13.5,10.47,20.07c4.58,8.01,9.56,15.82,14.91,23.41c0.1,0.14,0.2,0.29,0.31,0.43
	c0.95,1.36,1.93,2.71,2.92,4.06c4.51,6.16,9.28,12.16,14.32,18c0.52,0.61,1.05,1.21,1.58,1.81c1.02,1.18,2.06,2.34,3.11,3.5
	c0.53,0.59,1.06,1.17,1.6,1.76v0.01c0.09,0.09,0.17,0.18,0.25,0.27c2.93,3.2,5.95,6.35,9.05,9.44c4.89,4.88,9.92,9.56,15.08,14.04
	c0.07,0.06,0.13,0.12,0.2,0.17c3.7,3.23,7.47,6.34,11.31,9.35c1.05,0.83,2.11,1.64,3.17,2.45c51.22,39.14,113.58,60.32,179.19,60.32
	c65.62,0,127.96-21.19,179.19-60.32c1.07-0.82,2.14-1.65,3.2-2.48c3.83-3.01,7.59-6.11,11.29-9.32c0.07-0.05,0.13-0.11,0.2-0.17
	c1.08-0.93,2.14-1.87,3.2-2.82c4.04-3.62,8-7.36,11.87-11.22c3.11-3.1,6.14-6.26,9.09-9.48c0.61-0.66,1.22-1.33,1.82-2
	c1.75-1.93,3.47-3.88,5.14-5.84c0.52-0.6,1.03-1.21,1.54-1.81c1.55-1.83,3.07-3.68,4.57-5.55c1.26-1.58,2.51-3.16,3.74-4.76
	c0.71-0.93,1.42-1.86,2.12-2.8c0.46-0.61,0.92-1.22,1.37-1.84c1.61-2.18,3.19-4.37,4.73-6.59c0.71-1.02,1.41-2.04,2.1-3.06
	c2.32-3.42,4.57-6.89,6.74-10.4c1.12-1.8,2.21-3.62,3.29-5.45c1.91-3.24,3.75-6.53,5.53-9.84c0.55-1.01,1.08-2.02,1.61-3.03
	c0.94-1.81,1.87-3.62,2.77-5.45c19.88-40.08,30.39-84.49,30.39-130.52C595.5,221.27,564.76,147.25,508.95,91.58z M557.59,432.08
	c-1.74,3.39-3.56,6.74-5.45,10.05c-0.94,1.66-1.9,3.32-2.88,4.96c-0.03,0.04-0.05,0.08-0.08,0.12c-0.64,1.09-1.3,2.18-1.97,3.26
	c-1.67,2.72-3.38,5.41-5.15,8.07c-1.15,1.75-2.33,3.49-3.53,5.22c-0.2,0.29-0.41,0.59-0.62,0.88c-1.06,1.53-2.13,3.04-3.24,4.54
	c-0.67,0.93-1.36,1.86-2.06,2.79c-0.28,0.39-0.57,0.77-0.86,1.16c-0.59,0.78-1.18,1.57-1.79,2.35c-0.52,0.69-1.06,1.37-1.6,2.05
	c-0.32,0.43-0.66,0.85-0.99,1.27c-2.15,2.7-4.35,5.37-6.6,8.01c-0.64,0.76-1.3,1.52-1.95,2.27c-0.37,0.42-0.74,0.84-1.11,1.26
	c-1.96,2.23-3.95,4.43-6,6.6c-0.49,0.52-0.98,1.04-1.48,1.56c-0.13,0.15-0.28,0.3-0.42,0.45c-0.93,0.99-1.88,1.96-2.84,2.94
	c-0.74,0.76-1.5,1.52-2.26,2.28c-4.9,4.89-9.94,9.57-15.12,14.06c-1.65,1.43-3.31,2.84-4.99,4.23c-0.07,0.06-0.14,0.12-0.21,0.17
	c-3.89,3.22-7.85,6.32-11.88,9.32c-1.13,0.84-2.26,1.66-3.39,2.48c-48.94,35.28-107.56,54.32-169.12,54.32
	c-61.55,0-120.19-19.03-169.12-54.32c-1.13-0.8-2.25-1.62-3.36-2.45c-4.05-3-8.02-6.12-11.91-9.35c-0.07-0.05-0.14-0.11-0.21-0.17
	c-6.4-5.31-12.61-10.91-18.61-16.81c-0.19-0.18-0.38-0.37-0.57-0.56c-0.31-0.3-0.62-0.61-0.93-0.92c-0.18-0.18-0.36-0.36-0.53-0.54
	c-1.54-1.53-3.05-3.08-4.54-4.65c-0.65-0.68-1.29-1.36-1.92-2.04c-0.16-0.17-0.32-0.34-0.47-0.51c-2.06-2.21-4.09-4.44-6.08-6.71
	c-5.28-6.01-10.29-12.22-15-18.6c-2.79-3.75-5.46-7.55-8.04-11.42c-0.38-0.57-0.76-1.13-1.13-1.7c-3.36-5.1-6.54-10.29-9.55-15.57
	c-4.33-7.58-8.29-15.34-11.89-23.26C19.34,382.22,10.5,341.79,10.5,300c0-77.13,30.11-149.64,84.79-204.17
	C149.97,41.29,222.67,11.25,300,11.25s150.03,30.04,204.71,84.58C559.39,150.36,589.5,222.87,589.5,300
	C589.5,346.71,578.45,391.73,557.59,432.08z M96.22,505.09c-0.09,0.19-0.16,0.38-0.21,0.57c0.26,0,0.52,0,0.78-0.01
	C96.6,505.47,96.41,505.28,96.22,505.09z"/>
<ellipse class="st1" cx="1037.46" cy="234.79" rx="300.42" ry="299.64"/>
<path class="st0" d="M493.88,522.46c-0.07,0.06-0.13,0.12-0.2,0.17c-3.7,3.21-7.46,6.31-11.29,9.32c-1.06,0.83-2.13,1.66-3.2,2.48
	c-51.23,39.13-113.57,60.32-179.19,60.32c-65.61,0-127.97-21.18-179.19-60.32c-1.06-0.81-2.12-1.62-3.17-2.45
	c-3.84-3.01-7.61-6.12-11.31-9.35c-0.07-0.05-0.13-0.11-0.2-0.17H493.88z"/>
</svg>
